<svg width="22" height="22" viewBox="0 0 22 22" fill="none" xmlns="http://www.w3.org/2000/svg">
<path d="M11.4354 15.3439V16.4C11.4354 16.5706 11.3675 16.734 11.247 16.8546C11.1263 16.9753 10.9627 17.0431 10.7921 17.0431C10.6215 17.0431 10.4579 16.9753 10.3374 16.8546C10.2167 16.734 10.149 16.5706 10.149 16.4V15.315C9.72326 15.2448 9.31603 15.0896 8.95151 14.8587C8.58706 14.6278 8.27275 14.326 8.02735 13.9711C7.92895 13.8636 7.87421 13.7231 7.87378 13.5774C7.87368 13.4942 7.89045 13.412 7.92311 13.3355C7.95577 13.259 8.00366 13.1899 8.06379 13.1325C8.12394 13.0751 8.19507 13.0304 8.27298 13.0013C8.35087 12.9721 8.43388 12.9591 8.51696 12.9631C8.59941 12.9626 8.68089 12.9805 8.75558 13.0153C8.83036 13.0501 8.89641 13.1011 8.94902 13.1647C9.25603 13.5658 9.67286 13.8691 10.149 14.0382V11.6C8.87222 11.0912 8.22897 10.3519 8.22897 9.38227C8.24821 8.8632 8.45222 8.36806 8.80425 7.98611C9.15628 7.60416 9.63321 7.36058 10.149 7.29916V6.23346C10.149 6.06287 10.2167 5.89915 10.3374 5.77853C10.4579 5.65791 10.6215 5.59033 10.7921 5.59033C10.9627 5.59033 11.1263 5.65791 11.247 5.77853C11.3675 5.89915 11.4354 6.06287 11.4354 6.23346V7.28955C11.7942 7.34484 12.138 7.4718 12.4465 7.66314C12.7549 7.85449 13.0217 8.10621 13.2306 8.40306C13.3153 8.51413 13.3653 8.6476 13.3745 8.78698C13.3771 8.86925 13.3632 8.95133 13.3334 9.02813C13.3037 9.10493 13.2588 9.17482 13.2015 9.23395C13.1442 9.29299 13.0756 9.34013 12.9998 9.37219C12.924 9.40426 12.8425 9.42077 12.7601 9.42067C12.6743 9.41962 12.5896 9.40023 12.5119 9.36375C12.434 9.32736 12.3649 9.27475 12.309 9.20957C12.0801 8.92359 11.7783 8.70451 11.4354 8.5758V10.7358L11.6754 10.8319C12.8946 11.3023 13.653 11.9934 13.653 13.0974C13.6365 13.683 13.3983 14.2406 12.9868 14.6576C12.5752 15.0745 12.0207 15.3198 11.4354 15.3439ZM10.149 10.1792V8.62385C9.99407 8.68003 9.86063 8.78352 9.76761 8.91965C9.67468 9.05568 9.62678 9.21754 9.63062 9.38227C9.63849 9.54547 9.69091 9.70339 9.78239 9.83885C9.87379 9.97431 10.0006 10.082 10.149 10.1504V10.1792ZM12.261 13.1262C12.261 12.6558 11.9346 12.3774 11.4354 12.1662V14.0862C11.6711 14.0531 11.886 13.9335 12.0386 13.7508C12.1911 13.5681 12.2704 13.3352 12.261 13.0974V13.1262Z" fill="#9F9F9F"/>
<path d="M11.1568 2.86377H4.84C3.82156 2.86377 2.84491 3.2684 2.12476 3.98853C1.40463 4.70868 1 5.68533 1 6.70377V16.3038C1 17.3222 1.40463 18.2989 2.12476 19.019C2.84491 19.7392 3.82156 20.1438 4.84 20.1438H16.36C17.3785 20.1438 18.3552 19.7392 19.0753 19.019C19.7955 18.2989 20.2 17.3222 20.2 16.3038V10.4765" stroke="#9F9F9F" stroke-width="2" stroke-linecap="round" stroke-linejoin="round"/>
<path d="M20.1998 1.85596L14.7662 7.28956" stroke="#9F9F9F" stroke-width="2" stroke-linecap="round" stroke-linejoin="round"/>
<path d="M19.115 7.28923H14.7662V2.94043" stroke="#9F9F9F" stroke-width="2" stroke-linecap="round" stroke-linejoin="round"/>
</svg>
